<?xml version="1.0" encoding="utf-8"?>
<!-- Generator: Adobe Illustrator 26.4.1, SVG Export Plug-In . SVG Version: 6.00 Build 0)  -->
<svg version="1.1" id="Layer_1" xmlns="http://www.w3.org/2000/svg" xmlns:xlink="http://www.w3.org/1999/xlink" x="0px" y="0px"
	 width="300px" height="300px" viewBox="0 0 300 300" style="enable-background:new 0 0 300 300;" xml:space="preserve">
<style type="text/css">
	.st0{clip-path:url(#SVGID_00000044877589426580345320000016673244882446172290_);}
	.st1{fill:#161615;}
</style>
<g id="Group_1743" transform="translate(0)">
	<g>
		<g>
			<defs>
				<rect id="SVGID_1_" x="23.2" y="125.7" width="253.6" height="48.6"/>
			</defs>
			<clipPath id="SVGID_00000084521271973680714590000008484057943024917663_">
				<use xlink:href="#SVGID_1_"  style="overflow:visible;"/>
			</clipPath>
			
				<g id="Group_1742" transform="translate(-0.001 0)" style="clip-path:url(#SVGID_00000084521271973680714590000008484057943024917663_);">
				<path id="Path_387" class="st1" d="M50,148C50,148.1,50,148.1,50,148c0.1-0.2,0.5-0.8,2-0.3c0,0,0.1,0,0-0.1
					c-0.3-0.3-0.4-0.8-0.3-1.2c0.2,0,0.2-0.1,0-0.1c-0.5,0.1-0.9,0.1-1.4,0.2c-0.1,0-0.2,0.1,0,0.1C50,147.1,49.9,147.6,50,148"/>
				<path id="Path_388" class="st1" d="M52.6,149.9c0.2-0.6,1.7-0.5,2.6-0.2c0,0,0.1,0,0,0c-0.8-1.3-0.4-1.9-0.3-2.1
					c0.2,0,0.2-0.1,0-0.1c-0.1,0-1.2,0.1-2.1,0.3c-0.1,0-0.2,0-0.2,0.1c0,0,0.1,0,0.2,0C52.2,148.4,52.1,149.3,52.6,149.9
					C52.5,150,52.5,150,52.6,149.9"/>
				<path id="Path_389" class="st1" d="M52.8,147.8L52.8,147.8c0.2-0.3,0.9-0.6,2.1-0.3l0,0l0,0c-0.3-0.4-0.4-1-0.2-1.5
					c0.1,0,0.1,0,0.1-0.1c0,0,0,0-0.1,0c-0.5,0.1-1.1,0.2-1.6,0.3c-0.1,0-0.2,0.1,0,0.1C52.6,146.6,52.7,147.6,52.8,147.8"/>
				<path id="Path_390" class="st1" d="M55.7,147.8c-0.5,0.5-0.6,1.2-0.3,1.8c0.3-0.4,0.9-0.5,1.4-0.3c-0.4,0.4-0.8,0.8-0.9,0.9
					c-0.2,0.5-0.3,1.1-0.1,1.6c0,0,2.4-0.2,2.5-0.2c0.2,0,0.2-0.1-0.2-0.1c-0.5-0.9-0.7-1.9-0.6-2.8c0.1-0.1,0.2-0.2,0.2-0.3h-0.1
					c-0.1,0.1-0.3,0.3-0.5,0.5c-0.1-0.4-0.1-0.9,0-1.3c0.2,0,0.1-0.1,0-0.1C56.7,147.5,56.2,147.6,55.7,147.8
					C55.6,147.7,55.6,147.8,55.7,147.8"/>
				<path id="Path_391" class="st1" d="M47,151c0.4-0.2,0.9,0,1.5,0.4h0.1c0.1-0.7,0.4-1.4,0.8-2c0,0.2,0,0.5,0.1,0.7c0,0,0,0.1,0,0
					c0.1-0.2,0.4-0.9,2.4-0.2c-1,0.1-1.5,0.2-2.4,0.3c-0.2,0-0.2,0.1,0,0.1c-0.8,0.6-0.4,1.3-0.1,1.7c0.2-0.3,1.1-0.6,2.7,0.3l0,0
					c-0.3-0.8-0.6-2-0.1-2.3c0.2,0,0.2-0.1,0.1-0.1H52c-0.4-0.9-0.5-1.3-0.1-1.9c0.1,0,0.2,0,0.2-0.1H52c-0.7,0.1-1.4,0.2-2.1,0.3
					c-0.2,0-0.2,0.1-0.1,0.1c-0.3,0.2-0.4,0.6-0.4,0.9C48.6,149.7,47.7,150.3,47,151C46.9,151,46.9,151,47,151"/>
				<path id="Path_392" class="st1" d="M55.2,146.9c0.3-0.1,0.7,0.2,1,0c0,0.1,0,0.5,0,0.6s0.1,0.1,0.1-0.1c0-0.1,0-0.9,0-1.3
					c0-0.2-0.1-0.1-0.1,0c-0.3,0.3-1-0.2-1.1,0.1C55.3,146.3,55.3,146.6,55.2,146.9"/>
				<path id="Path_393" class="st1" d="M47.2,149.9L47.2,149.9C47.2,149.8,47.2,149.9,47.2,149.9"/>
				<path id="Path_394" class="st1" d="M51.8,130.8c-0.5,1.2-0.1,2.3,1.1,2.3c1.2,0,1.5-1.1,1-2.3c1.1,1.6,2.5,0.4,1.9-0.6
					c0.9-0.4,1-1.5,0.1-1.8c-0.9-0.2-1.8,0.1-2.4,0.7c0-0.1,0-0.1,0-0.2c0.1-0.2,0.1-0.4,0-0.6l0,0c0.1-0.2,0.2-0.4,0.3-0.6
					c0.1-0.1,0.1-0.7,0-0.6s-0.2,0.6-0.1,0.6c-0.1,0.2-0.2,0.3-0.3,0.5c-0.1,0-0.2,0-0.3,0c0-0.1-0.1-0.2-0.2-0.3l0,0l0,0l0,0
					c-0.1,0.1-0.2,0.2-0.2,0.3c-0.1,0-0.2,0-0.3,0c-0.1-0.2-0.2-0.3-0.3-0.5c0.1-0.1,0-0.6-0.1-0.6c-0.1-0.1-0.1,0.5,0,0.6
					c0,0.2,0.1,0.4,0.3,0.6c-0.2,0.1-0.2,0.4-0.1,0.5l0,0c0,0.1,0,0.1,0,0.2c-0.6-0.6-1.5-0.9-2.4-0.7c-0.9,0.3-0.8,1.5,0.1,1.8
					C49.3,131.2,50.6,132.4,51.8,130.8 M52.9,132.6c0,0-1.2,0-1-1c0.3,0.1,0.6,0.2,0.9,0.2c0,0,0.1,0,0.2,0c0.3,0,0.6-0.1,0.9-0.2
					C54,132.6,52.9,132.6,52.9,132.6 M49.6,129.1c0.2-1,2-0.1,2.6,0.3c-0.4,1,0.6,1,0.7,1l0,0c0.1,0,1.1-0.1,0.7-1
					c0.6-0.4,2.4-1.3,2.6-0.3c0.1,0.8-1.3,1.4-2.4,1c0.6,0.3,1.2,0.4,1.9,0.2c0.4,0.5-0.5,1.6-1.9,0c0,0.2,0.1,0.4,0.1,0.5
					c-0.3,0.1-0.6,0.2-0.9,0.2l0,0l0,0c-0.3,0-0.6-0.1-0.9-0.2c0-0.2,0.1-0.4,0.1-0.5c-1.4,1.6-2.3,0.5-1.9,0
					c0.6,0.2,1.3,0.1,1.8-0.2C50.9,130.6,49.4,130,49.6,129.1"/>
				<path id="Path_395" class="st1" d="M47.1,172.1L47.1,172.1c0.1-0.4,0.1-0.7-0.1-1.1c-0.2-0.5-0.4-0.8-0.6-0.9
					c0.1-0.2,0.1-0.4,0.1-0.5c-0.2,0-0.3,0.1-0.5,0.3c-0.3-0.2-0.7-0.3-1-0.3c-0.4-0.1-0.8,0-1.1,0.3c-0.1-0.1-0.3-0.2-0.5-0.3
					c0,0.2,0,0.4,0.1,0.5c-0.3,0.1-0.4,0.5-0.6,0.9c-0.2,0.3-0.2,0.7-0.1,1.1c-0.2,0.1-0.3,0.2-0.4,0.4c0.2,0.1,0.3,0.1,0.5,0.1
					c0,0.3,0.3,0.6,0.7,0.8c0.4,0.3,0.8,0.5,1,0.4l0,0l0,0c0,0.2,0.1,0.3,0.2,0.5c0.1-0.1,0.2-0.3,0.2-0.5c0.3,0.1,0.7-0.1,1-0.4
					c0.2-0.1,0.8-0.6,0.7-0.9c0.2,0,0.4,0,0.5-0.1C47.4,172.3,47.3,172.2,47.1,172.1 M43.6,171.2c0.1-0.4,0.3-0.6,0.4-0.6
					c0.1,0,0.2,0.1,0.4,0.5c0.1,0.1,0.2,0.2,0.4,0.3c-0.1,0.1-0.2,0.2-0.2,0.3v0.1c-0.2,0-0.3,0-0.5,0c-0.3,0.2-0.4,0.2-0.5,0.1
					C43.5,171.8,43.5,171.6,43.6,171.2 M44.8,172.6c0.1,0.4,0.1,0.5,0,0.6s-0.4,0-0.7-0.3c-0.3-0.2-0.5-0.4-0.5-0.6
					c0-0.1,0.1-0.2,0.5-0.2c0.2,0,0.3-0.1,0.4-0.3c0.1,0.2,0.2,0.3,0.4,0.3C44.9,172.3,44.8,172.4,44.8,172.6 M45,171.3
					c-0.1,0-0.2,0-0.2,0.1c0-0.1,0-0.3-0.1-0.4c-0.3-0.3-0.4-0.4-0.4-0.6s0.3-0.2,0.7-0.2s0.7,0.1,0.7,0.2s0,0.3-0.3,0.6
					c-0.1,0.1-0.1,0.3-0.1,0.4C45.2,171.3,45.1,171.3,45,171.3 M45.9,172.9c-0.3,0.2-0.6,0.3-0.7,0.3c-0.1-0.1-0.1-0.2-0.1-0.6
					c0-0.2,0-0.3-0.1-0.4c0.1,0,0.2-0.1,0.3-0.1c0,0,0.1-0.1,0.1-0.2c0.1,0.1,0.2,0.2,0.3,0.2c0.4,0,0.5,0.1,0.6,0.3
					C46.4,172.5,46.2,172.7,45.9,172.9 M46.5,172c-0.1,0.1-0.3,0.1-0.7-0.1c-0.1-0.1-0.2-0.1-0.4,0v-0.1c0-0.1,0-0.2-0.1-0.3l0,0
					c0.2,0,0.3-0.1,0.4-0.3c0.2-0.4,0.3-0.5,0.4-0.5s0.3,0.2,0.4,0.6C46.5,171.6,46.6,171.9,46.5,172"/>
				<path id="Path_396" class="st1" d="M62.8,172.1c0.1-0.4,0.1-0.8-0.1-1.1c-0.1-0.4-0.3-0.8-0.6-0.9c0.1-0.2,0.1-0.4,0.1-0.5
					c-0.2,0-0.4,0.1-0.5,0.3c-0.3-0.2-0.7-0.3-1.1-0.3c-0.4,0-0.7,0.1-1,0.3c-0.1-0.1-0.3-0.2-0.5-0.3c0,0.2,0,0.4,0.1,0.5
					c-0.2,0.1-0.5,0.4-0.6,0.9c-0.2,0.3-0.2,0.7-0.1,1.1l0,0c-0.2,0.1-0.3,0.2-0.4,0.4c0.2,0.1,0.4,0.1,0.5,0.1
					c-0.1,0.3,0.5,0.7,0.7,0.9c0.4,0.2,0.7,0.5,1,0.4c0,0.2,0.1,0.3,0.2,0.5c0.1-0.1,0.2-0.3,0.2-0.5l0,0l0,0c0.3,0.1,0.6-0.1,1-0.4
					c0.3-0.3,0.7-0.5,0.7-0.8c0.2,0,0.4,0,0.5-0.1C63.1,172.3,63,172.2,62.8,172.1 M59.3,171.2c0.1-0.4,0.3-0.6,0.4-0.6
					s0.2,0.1,0.4,0.5c0.1,0.1,0.2,0.2,0.4,0.3l0,0c-0.1,0.1-0.1,0.2-0.1,0.3v0.1c-0.1-0.1-0.3-0.1-0.4,0c-0.3,0.2-0.6,0.2-0.7,0.1
					C59.1,171.9,59.2,171.6,59.3,171.2 M60.5,172.6c0.1,0.4,0.1,0.5-0.1,0.6c-0.1,0.1-0.4-0.1-0.7-0.3c-0.3-0.2-0.5-0.4-0.5-0.6
					s0.2-0.2,0.6-0.3c0.1,0,0.3-0.1,0.3-0.2c0,0.1,0.1,0.1,0.1,0.2c0.1,0.1,0.2,0.1,0.3,0.1C60.6,172.3,60.5,172.4,60.5,172.6
					 M60.5,171.3c0-0.1,0-0.3-0.1-0.4c-0.3-0.3-0.4-0.4-0.3-0.6c0-0.1,0.3-0.2,0.7-0.2s0.7,0.1,0.7,0.2c0,0.1-0.1,0.3-0.4,0.6
					c-0.1,0.1-0.1,0.3-0.1,0.4c-0.1,0-0.1-0.1-0.2-0.1C60.6,171.2,60.5,171.3,60.5,171.3 M61.6,172.9c-0.3,0.2-0.6,0.3-0.7,0.3
					c-0.1-0.1-0.1-0.2,0-0.6c0-0.2,0-0.3-0.2-0.4c0.2,0,0.3-0.1,0.4-0.3c0.1,0.1,0.2,0.2,0.4,0.3c0.4,0,0.5,0.1,0.5,0.2
					C62.1,172.5,61.9,172.7,61.6,172.9 M62.2,171.9c-0.1,0.1-0.2,0.1-0.5-0.1c-0.2-0.1-0.3-0.1-0.5,0v-0.1c0-0.1-0.1-0.3-0.2-0.3
					c0.2,0,0.3-0.1,0.4-0.3c0.2-0.4,0.3-0.5,0.4-0.5c0.1,0,0.3,0.3,0.4,0.6C62.2,171.6,62.3,171.9,62.2,171.9"/>
				<path id="Path_397" class="st1" d="M38.5,168.8c-0.2,0.1-0.3,0.4-0.2,0.6c0,0,0,0.1,0.1,0.1c0.1,0.3,0.4,0.4,0.7,0.2
					c0.2-0.2,0.3-0.5,0.1-0.7C39,168.8,38.7,168.7,38.5,168.8 M63.3,167.8c0.3,0.1,0.6,0,0.7-0.3c0.1-0.2,0-0.5-0.2-0.6
					s-0.5-0.1-0.6,0.1v0.1C63,167.3,63,167.6,63.3,167.8C63.2,167.8,63.2,167.8,63.3,167.8 M48.2,164.5c-0.3,0-0.5,0.2-0.4,0.5
					c0,0.3,0.2,0.5,0.5,0.5c0.4,0,0.5-0.3,0.4-0.6C48.7,164.7,48.5,164.5,48.2,164.5 M65.7,168.3c0.1-0.1,0.1-0.2-0.1-0.3l-0.2-0.1
					l-0.2,0.4l0.1,0.1C65.4,168.5,65.6,168.4,65.7,168.3 M60.1,165l-0.4,0.5l0.3,0.1L60.1,165z M62,166.2c0.1-0.1,0-0.2-0.2-0.3
					l-0.1-0.1l-0.2,0.3l0.1,0.1C61.9,166.3,62,166.3,62,166.2 M61.8,166.8c0.1-0.1,0-0.2-0.2-0.3l-0.1-0.1l-0.2,0.3l0.2,0.1
					C61.7,166.9,61.8,166.9,61.8,166.8 M81.6,143.5c-0.4,0.7-1.1,1-1.9,0.9c0.5-0.5,0.4-1,0.1-1.2c-0.9,1.6-3.7,0.1-4.1,2.6
					c-3.2,2-0.1,5.8,0.2,6.2c-0.8,0.1-1.7-0.4-1.8-1.3c0-0.1,0-0.1,0-0.2c-0.6,0.4-0.7,1.1-0.3,1.7c0.1,0.2,0.2,0.3,0.4,0.4
					c-0.1,0.4-0.1,1.5,1.5,1.8c-0.6,0.2-1,0.9-0.7,1.5c0.1,0.4,0.4,0.6,0.8,0.7c-0.2-0.3-0.2-0.7,0.1-0.9c0.2-0.2,0.5-0.2,0.8-0.1
					c0.5,0.3,0.7,1,0.4,1.5c-0.1,0.2-0.3,0.4-0.6,0.5c-1,0.3-1.7-0.6-2.1-1.4c-0.5-1.2-0.5-2.5-2.1-4.1c-1.2-1.4-1.3-3.4-0.3-4.9
					c0.5,0.3,1.2,0.4,1.8,0.2c-0.9-0.6-1.3-1.8-0.8-2.8c0.3,0.2,0.6,0.3,1,0.3c-0.6-0.6,0.2-2.2-0.5-3.4c0.4,0.1,0.8,0,1.1-0.2
					c-0.4-0.2-0.7-0.4-1-0.7c0,0,0.8-0.3,0.6-0.7c-0.7,0.1-0.8-0.2-0.8-0.2s0.6-0.6,0.6-1c0-0.3-0.8-0.3-1.3-0.1
					c0.2-0.3,0.9-1.3,1.5-2.2c-0.4-0.2-0.6-0.4-0.9-0.5l-0.3,0.5l-0.7-0.3l0.3-0.5c-0.3-0.2-0.6-0.3-0.9-0.4l-0.2,0.6
					c-0.3-0.1-0.6-0.2-0.9-0.2c0-0.1,0.1-0.6,0.1-0.6c-0.3-0.1-0.7-0.1-1-0.1l-0.1,0.6c0,0-0.4,0-0.7-0.1c0-0.1,0-0.6,0-0.6
					c-0.3,0-0.6,0-1,0c0,0.4,0.2,2.7,0.2,2.7s-0.9-0.9-1.1-0.7c-0.4,0.4-0.1,1.3-0.1,1.3c-0.5,0.2-0.9,0.1-1.4-0.1
					c0,0.3,0.1,0.6,0.3,0.9c-0.6,0.3-1.1,0.8-1.2,1.4c0.3-0.2,0.7-0.2,1.1-0.1c-0.9,0.6-1,2.4-2.3,3.2c0.1,0.3,0.5,0.5,1,0.2
					c-0.3,0.6-0.6,1.2-0.7,1.8h-0.4c-1.5-1-2.1-0.6-3.3-1.3c-0.4,0-0.9,0.1-1.3,0.3c-0.1,0-0.2,0-0.2,0c-0.1-0.5-0.5-1.6-1.4-1.6
					c-0.3-0.2-0.5-0.6-0.6-1c0.1-1.1,0.4-2.1,0.7-3.2c0,0,0,0,0-0.1c0-0.2,0.1-0.5,0.1-0.7c0.7,0.1,2.7,0,3.1,1.5
					c-0.6,0.5-1.5,0.5-2.2,0.2c-0.1,0.5,0,1.1,0.3,1.6c-0.3,0.7-0.8,1.2-1.5,1.5c0.8,0.3,1.6,0.3,2.5,0.1c0.4,0.5,0.9,0.8,1.6,0.8
					c-0.5-0.7-0.5-1.7-0.2-2.5l0,0c0.9-1.1,0.7-2.6-0.4-3.5c2-0.8,2-2.5,2.5-2.9c-0.4-0.2-0.9-0.2-1.4-0.1c-0.1-0.5-0.2-0.9-0.3-1.3
					c1.3,0.8,3,1.8,4.4,1.8c1.6,0.2,3-1,3.2-2.5c0-0.3,0-0.6,0-0.9c-0.2-1.7-2-3.4-0.7-4.5c-1.5-0.1-2.4,0.3-2.6,1.6
					c-0.9-0.1-1.7-0.5-2.4-1c-0.1-0.6,0.2-1.2,0.8-1.5c-0.7-0.2-1.5,0.1-1.9,0.7c-1.4,1.9,1.9,4.5,1.9,4.5l0,0
					c-1.1,0-2.2-1.5-3.1-1.8c-0.8-0.2-1.2,0.1-1.3,0.4c-0.3,1-0.7,1.9-1.2,2.8c-0.5,1,0.6,1.8,0.9,2.6c0.2,0.5,0.2,1.1-0.7,1.1
					c-0.6,0-1.1-0.1-1.6-0.4c-0.3-0.2-0.5-0.4-0.7-0.7c0.3-0.1,0.6-0.4,0.5-0.7c0-0.1-0.1-0.2-0.1-0.3c1.9-1.9,1.9-5.1,0-7
					s-5.1-1.9-7,0s-1.9,5,0,7c-0.5,0.5,0,1.2,0.9,1.1l-0.1,0.1c-0.9,0.5-1.9,0.8-2.9,0.9c-1,0-0.9-0.6-0.7-1.1
					c0.3-0.8,1.4-1.6,0.9-2.6c-0.5-0.9-0.9-1.8-1.2-2.8c-0.1-0.3-0.5-0.6-1.3-0.4c-0.9,0.3-2,1.8-3.1,1.8l0,0c0,0,3.2-2.6,1.9-4.5
					c-0.4-0.6-1.2-0.9-1.9-0.7c0.6,0.2,0.9,0.9,0.8,1.5c-0.7,0.5-1.5,0.9-2.4,1c-0.2-1.3-1.1-1.7-2.6-1.6c1.3,1.1-0.4,2.8-0.7,4.6
					c-0.3,1.5,0.7,3.1,2.2,3.4c0.3,0.1,0.6,0.1,0.9,0c1.4,0,3.1-1.1,4.4-1.8c-0.1,0.4-0.2,0.9-0.3,1.3c-0.5-0.1-0.9-0.1-1.4,0.1
					c0.5,0.3,0.5,2.1,2.5,2.9c-1.1,0.9-1.2,2.4-0.4,3.5l0,0c0.4,0.8,0.3,1.7-0.1,2.5c0.6,0,1.2-0.3,1.6-0.8c0.8,0.2,1.7,0.2,2.5-0.1
					c-0.7-0.3-1.2-0.8-1.5-1.5c0.3-0.4,0.5-1,0.3-1.6c-0.7,0.4-1.5,0.3-2.2-0.2c0.4-1.5,2.4-1.4,3.1-1.5l0,0
					c-0.5,0.2-1.1,0.5-1.1,0.7c2.7,2.2,2.8,4.3,2.8,4.4c-0.2,0.2-0.4,0.4-0.6,0.4c-0.2-0.2-0.5-0.1-0.6,0.4c0,0.2-0.1,0.4-0.1,0.6
					c-0.5,0-1.1,0.1-1.7,0.1l-0.2-0.1c-0.2-0.2-0.4-0.3-0.7-0.4c-0.9,0.3-2.2,0-3.6,0.6c-0.5-0.5-1.1-0.9-1.7-1.2
					c0.3-0.4-0.2-0.6-0.5-0.4c-0.1-0.1-0.6-0.4-0.7-0.4c0.1-0.2-0.1-0.6-0.8-0.4c-0.4-0.2-0.8-0.6-1.1-1c0,0,1.3-1.1,1.9,0.2
					c0-0.7,0.5-0.7,0.5-1.1c0-0.1,0-0.1-0.2-0.2c-0.1-0.1,0-0.2,0-0.5c-0.2,0.1-0.3,0-0.5,0.1c-0.4,0.7-0.8,0.4-0.6,0.2
					c-0.1,0-0.2,0-0.3,0c-0.1,0.2-0.3,0.3-0.5,0.3c0.3-0.6,0.9-0.9,1.5-0.9c0.6,0.2,1.2,0.2,1.8,0.2c0.7-0.2,1.2-0.9,0.9-1.4
					c-0.1,0.6-1.2,1-1.9,0.8c-0.7-0.2-1.4,0-2,0.4c-0.6,0.6-0.8,0.7-1.1,0.7c-0.4,0-0.1-1.1,1-1.4c0.2-0.1,0.3,0.3,0.3,0.3
					s0.3-0.1,0.4-0.1c0.1-0.3,0.3-0.5,0.6-0.6c0.5-0.1,0.4,0.4,0.4,0.4c0.2,0,0.4,0,0.5-0.1c0.2-0.6,0.8-1,1.2-0.7
					c0-0.6-0.4-1.1-0.9-1.3c-1,0-0.9-0.5-1.3-0.4c-0.1,0.1-0.2,0.2-0.2,0.3c0,0,0,0,0,0.1c-0.3,0.3-1.1,0.2-1.8,0.4
					c0.2-0.2-0.2-0.5-0.7-0.3c-0.4,0.1-0.7,0.2-1.1,0.3c-0.4-0.9-1-1.8-1.6-2.7c-0.6-0.7-1.4-1.3-2.3-1.6c-0.5-0.3-1-0.6-1.5-1
					c-0.4-0.3-0.2,0.1-0.2,0.1c0.5,1,1.4,1.9,2.4,2.3c-0.3,0.1-0.6,0-0.9-0.1c-0.9-0.5-1.9-0.4-2.9-1.6c-0.3-0.3-0.5-0.7-0.5-0.2
					c0.1,0.9,0.8,1.7,1.6,2.1c-0.4,0.2-0.8,0.2-1.2,0.2c-0.6,0-0.1,0.3-0.1,0.3c0.7,0.4,2.5-0.2,3.2,0.5c-0.6,0.3-1.3,0.3-1.9,0.2
					c-1.1-0.1-0.4,0.3-0.1,0.5c0.8,0.3,2.6-0.1,3.3,0.6c-0.1,0.1-0.7,0.4-2,0.1c-0.8-0.2,0.2,0.7,1.2,0.7c0.5,0,1.1-0.3,1.5,0
					c-0.6,0.1-1.1,0.7-1.7,0.7c0.4,0.3,0.8,0.5,1.3,0.4c-0.1,0.1-0.1,0.3-0.2,0.5c-1-0.2-2.3-0.1-2.9,1c-0.5,1-2,1.2-2.2,0.2
					c-0.7,2,1.3,2.6,3.1,2c-0.9,0.5-1.1,1.7,0.4,2.1c-0.4-1.1,0.7-1.4,1.6-1c-0.9,0.5-1.2,1.6-0.7,2.4c0.2,0.3,0.5,0.6,0.8,0.7
					c-0.2-0.6,0.1-1.2,0.7-1.4c0.1,0,0.2,0,0.3,0c0.1,0.1,0.1,0.2,0.2,0.3c-0.4,0.8,0.4,0.5,0.4,0.5c0.2,0.2,0.3,0.5,0.5,0.7
					c-0.4,0.6,0.1,0.7,0.3,0.6c-0.1,1,0.1,2,0,2.8c-0.2,1.6-1.1,2.4-1.7,3.7c-0.7,1.3-0.7,2-1.3,2.6c-1,0.9-2.5,1.3-3.8,0.8
					c-0.8-0.3-1.2-1.2-0.9-2c0-0.1,0.1-0.1,0.1-0.2c0.7-0.9,2.3,0,1.1,0.9c1.5-0.2,1.3-2-0.1-2.3c1.9,0.2,3.1-0.8,2.8-1.9
					c0.4-0.6,0.2-1.4-0.4-1.8c-0.1-0.1-0.2-0.1-0.3-0.1c0.2,1.6-1.6,1.8-1.7,1.4c1.1-1.4,1.5-3.2,0.9-4.9c-0.8-1.8-3.1-3-5.9-1.5
					c0.2,0,0.5,0,0.7,0.1c-1.5,0.9-0.9,2.8-0.5,3.8c0.1,0.3,0.4,1.5-0.3,1.9c-0.6,0.3-1.7-0.3-0.9-1.9c-2.2,2.2,0.1,4.1,1.6,3.1
					c0.1,0.4,0,0.8-0.2,1.1c2.7-1.5,2-3.6,1.5-4.4c1.8,1,3-0.5,1.9-1.5c0.1,0.4-0.2,0.8-0.6,0.9c-0.1,0-0.2,0-0.2,0
					c-0.9-0.1-0.9-1.2-0.2-1.7c0.7-0.4,1.6-0.2,2,0.4c0.5,0.7,0.5,2.1-0.6,3.7c-0.7,1-3.7,4.5-1,7.2c-3.1,0.9-1.7,3.7-0.3,4.1
					c-0.2-0.2-0.7-1.4,0.1-1.8c0,0.9,1,1.7,2.3,1.7c-2-3,2-2.6,3.7-4.5c0,1.5,1,2,0.8,2.4c-0.4,0.8-1.4,1.1-2.2,0.8
					c0.1,0.5,0.5,0.8,1,0.8c-0.2,0.2-0.6,0.3-0.9,0.2c0.2,0.9,0.3,1.9,0.2,2.9c-0.1,0.5-0.4,0.9-0.8,1.1c0.3,0.2,0.6,0.3,0.9,0.1
					c-0.3,0.3-0.4,0.7-0.1,1.1c0.1-0.2,0.3-0.5,0.6-0.5c0.1,0.1,0.2,0.2,0.2,0.4c0,0-0.3,0.9,0.9,1.3c0.4,0.1,0.8,0.2,1.3,0.2
					c0-0.5-0.2-1-0.5-1.4c0.1-0.7-1.8-2.6-0.5-4.5c0.6-0.8,1.9-0.9,2.9-2.3c0.4-0.7,0.5-1.4,0.4-2.2c2.6-0.1,2.7,2.5,0.9,3.3
					c0.2,0.2,0.5,0.1,0.9,0c-0.2,0.3-0.4,0.6-0.8,0.7c1.1-0.1,2.2,0.2,3.2,0.7c0.4,0.2,0.3,0.5,0.1,1.1c0.2,0,0.5-0.1,0.7-0.3
					c0,0,0.1,0.5,0.5,0.5c0-0.2,0.1-0.4,0.3-0.4l0,0c0.1,0.2,0.2,0.3,0.2,0.5c0.7,0.1,1.3,0.1,2,0c-0.2-0.5-0.6-1-1.2-1.1
					c-0.5-1-2.7-1.5-3.1-1.9c-0.1-0.1,0-0.4,0.1-0.7c0.3-0.7,1.1-1.8,0.5-3c-0.2-0.4,0.2-2.2-1.8-2.3c-0.7,0-1.3,0.1-1.9,0.4
					c0,0,1.1-1,1.8-1.6c0.6-0.6,1.1-1.3,1.7-2c0,0,0.9,0.6,1.4,0.9c0,0.1,0.1,0.3,0.1,0.4c0,0.5,0,1,0,1.4c0,0.1-0.1,0.2-0.1,0.3
					c-0.1,0.3-0.3,0.6-0.4,0.7c-0.1,0.1,0.2,0.5,0,0.7c-0.1,0.1-0.3,0.3-0.4,0.5c0,0.6,0.1,1.1,0.3,1.7c0.2-0.2,0.4-0.4,0.6-0.6
					c0,0.1,0,0.1,0,0.2c0.1,2.1,1.6,4.3,3.3,6.1c0.5,0,0.9,0,1.4,0.1c-2-1.8-3.8-4.2-3.8-6.4c0-0.8,0-1.7,0-2.6
					c2,2.3,7.1,8.5,8.9,11.2c-0.5,0.4-1,0.7-1.3,0.9c-0.5-0.3-1.2-0.8-2-1.5l0,0c-0.2-0.3-0.5-0.6-0.9-0.8
					c-5.3-2.6-12.8,5.8-15.7,5.1c-0.5-0.3-0.5-1.1-0.6-1.5c0-0.7-1.4-1.2-4,0.1c0.9,1.2,1.5,2.6,1.8,4v0.4c0.7-0.4,1.4-0.8,2.2-1
					c-0.1-0.6-0.2-1.1-0.4-1.6c0.6,1,1.1,2.1,1.4,3.2c0.1,0.4,0.6,0.6,2.2,0.2c2.4-0.5,7.6-5,11-5.5c0.9-0.1,1.7-0.1,2,0.7
					c-0.5-0.4-1.2-0.5-1.8-0.4c-0.3,0.2-0.5,0.7-0.4,1.1l0,0c0.4,0.9,0.7,1.8,0.9,2.7c0,1,2.7,1.4,4.3,1.4s4.3-0.4,4.3-1.4
					c0.2-0.9,0.5-1.9,0.9-2.7l0,0l0,0c0.1-0.4,0-0.8-0.4-1.1c-0.6-0.1-1.3,0-1.8,0.4c0.2-0.8,1.1-0.9,2-0.7c3.4,0.5,8.6,5,11,5.5
					c1.6,0.3,2.1,0.2,2.2-0.2c0.3-1.1,0.7-2.2,1.4-3.2c-0.2,0.5-0.3,1.1-0.4,1.6c0.8,0.2,1.5,0.5,2.2,1v-0.4c0.3-1.5,0.9-2.9,1.8-4
					c-2.6-1.3-4-0.8-4-0.1c0,0.4,0,1.2-0.6,1.5c-2.9,0.7-10.4-7.7-15.7-5.1c-0.4,0.2-0.7,0.4-0.9,0.8l0,0l0,0l0,0
					c0.1-0.4,0.3-0.8,0.7-1.1c-1.7-2.4-5.6-7.2-7.6-9.6c0.9,0,1.8,0,2.6,0c2.1,2.5,5.1,6.2,6.7,8.6c-0.2,0.2-0.4,0.4-0.6,0.6
					c0.5-0.1,0.9-0.1,1.4-0.1c1.8-1.8,3.3-4,3.3-6.2c0-0.6,0-1.2,0-1.8c0.1,0,0.2-0.1,0.2-0.2c0.1,0,0.1,0,0.2-0.1l0,0
					c0,0,0.4,0.2,0.6,0c-0.1,0-0.2-0.1-0.3-0.2c0.1-0.2,0.2-0.4,0.2-0.6c0.3-0.4,0.5-0.7,0.7-1.2c0.6-0.5,1.3-0.9,2.1-1
					c0.6,0.9,2.7,1.8,3.4,2.3c-0.1,0-0.3,0-0.4-0.1h-0.1l0,0c-0.9-0.2-1.8-0.2-2.6,0.1l0,0c-0.1,0-0.2,0.1-0.3,0.1
					c-0.7,0.6-1.2,1.4-1.4,2.4c-0.2,0.9,0.9,2,1.3,2.7c0.4,0.5,0.4,1.3-0.2,1.7c-0.6,0.5-1.4,0.8-2.2,0.9c-0.2,0-0.5,0-0.7,0
					c-0.1-0.1-0.3-0.2-0.5-0.2c-0.7-0.1-0.9,0.7-0.7,1c-0.2,0.1-0.3,0.4-0.3,0.6c0.3-0.3,0.5-0.3,0.5-0.3c0,0.1,0.2,0.2,0.3,0.3
					c-0.2,0.2-0.2,0.4-0.1,0.6c0.1-0.2,0.3-0.3,0.5-0.3c0.1,0.1,0.2,0.2,0.4,0.2c-0.1,0.2,0,0.4,0.1,0.6c0.1-0.2,0.2-0.4,0.4-0.4
					c0.5,0.2,1,0.2,1.5,0.2c0.5-0.6,1.3-1.1,2.1-1.2c0.6,0.1,1.2,0.1,1.8,0c-0.6-0.1-0.7-0.9-0.7-0.9c0.4,0.1,0.9,0.1,1.3,0.1
					c-2.1-2.1-1.8-4.5,1.2-4.9c-0.3,1.1-0.2,2.9,0.4,3.5c0.7,0.7,1.2,1.6,1.6,2.5c0,0.4-0.1,0.8-0.3,1.1c-0.4,0.3-0.9,0.6-1.4,0.7
					c-1.2-0.9-2,0.4-1.7,0.8c-0.2,0.2-0.2,0.4-0.2,0.6c0.1-0.1,0.3-0.2,0.6-0.3l0.2,0.2c-0.1,0.2-0.1,0.5-0.1,0.7
					c0.2-0.2,0.2-0.4,0.4-0.5c0.2,0.2,0.4,0.2,0.6,0.2c0,0.2,0,0.5,0.1,0.7c0.1-0.2,0.2-0.4,0.3-0.5c0.3,0.3,0.8,0.4,1.3,0.2
					c0.8-0.9,1.4-1.6,1.8-2.1c0.6,0.2,1.2,0.1,1.8-0.1c-0.9-0.6-1-0.9-1-0.9c0.4,0.2,0.8,0.2,1.1-0.1c-0.5-0.2-0.9-0.6-1.2-1
					c-0.6-0.4-0.9-1.2-0.9-1.9c0-1.1,0.7-2.6,0.7-3.4c0.5,1.5,3.6,1.7,3.1,3.4c0.8-0.3,1.1-1.2,0.8-2c-0.1-0.2-0.2-0.3-0.3-0.5
					c0.7-0.2,3-2.5-0.3-6.3c-1.3-1.5-3-4.7-0.5-5.5c1-0.3,2.7,0.2,2.2,2c0.8,0,1.4-0.6,1.4-1.4c0-0.5-0.2-0.9-0.6-1.2
					C81,146,81.8,144.9,81.6,143.5 M64.7,131.1c0,0-3.4-2.4-2.5-4.3c0.6,1.6,2.7,1.8,4,2.3c-0.2-0.6-0.1-2,1.2-2
					c-0.6,0.3-0.1,1.6,0.3,2.4c0.2,0.5,1.3,2.4,0.3,3.6c0.2-0.7,0-1.9-2.3-3.1c2.4,1.6,2.5,3.6,0.8,3.9c0.3-0.5,0.1-1.2-0.4-1.5
					c-0.5-0.3-2.1,0-2.3,0.7C63.6,132.3,63.9,131.4,64.7,131.1 M60.1,142.3c-0.3-0.2-0.6-0.4-0.7-0.7c-0.4,0.3-0.9,0.4-1.4,0.3
					c0.5-0.3,0.8-0.7,0.9-1.3c-0.3-0.3-0.4-0.6-0.5-1c0.6,0.1,1.3,0,1.8-0.3C60.7,140.2,59.7,141.4,60.1,142.3 M59.2,134.2
					c-0.9-1-0.9-1.8,0-2.1c0.5,0,1,0.1,1.4,0.4c0.4,0.7,0.6,1.5,0.6,2.4c0.3-0.2,0.6-0.2,1-0.3c-0.3,0.8-1,1.5-1.8,1.9
					c0.6-1.4,0.2-3-1-4c0.9,0.9,1.2,2.1,0.7,3.3C59.9,135.2,59.6,134.6,59.2,134.2 M41.9,133.1c-0.2-0.7-1.8-1-2.3-0.7
					c-0.5,0.3-0.6,1-0.4,1.5c-1.7-0.3-1.6-2.3,0.8-3.9c-2.2,1.2-2.4,2.4-2.3,3.1c-0.9-1.2,0.2-3.1,0.3-3.6c0.3-0.8,0.8-2,0.3-2.4
					c1.2,0,1.3,1.4,1.2,2c1.3-0.5,3.3-0.7,4-2.3c0.9,1.8-2.5,4.3-2.5,4.3C41.8,131.4,42.2,132.3,41.9,133.1 M47.2,139.6
					c0,0.4-0.2,0.7-0.5,1c0.1,0.5,0.4,1,0.9,1.3c-0.5,0.1-1,0-1.4-0.3c-0.1,0.3-0.4,0.6-0.7,0.7c0.4-0.9-0.6-2.1-0.2-3
					C45.9,139.7,46.6,139.8,47.2,139.6 M45.7,135.8c-0.4-1.1-0.1-2.4,0.7-3.3c-1.2,0.9-1.6,2.6-1,4c-0.8-0.4-1.5-1.1-1.8-1.9
					c0.3,0,0.7,0.1,1,0.3c0-0.8,0.2-1.6,0.6-2.4c0.4-0.3,0.9-0.4,1.4-0.4c0.9,0.3,0.9,1.1,0,2.1C46.1,134.6,45.8,135.2,45.7,135.8
					 M32.8,139.5c-0.9,0-1.8,0.5-2.2,1.3c0.4-0.9,1.2-1.6,2.2-1.6C33.7,139.2,33.4,139.6,32.8,139.5 M24.9,150.7
					c1.2-0.4,1.8-1.8,1.4-3C27.6,150.1,25.3,150.9,24.9,150.7 M30.2,145.2c-1.2-0.9-2.9-0.7-3.8,0.5c0.2-1,1.2-1.7,2.2-1.5
					c-0.3-0.2-0.6-0.4-1-0.4c1.1-0.2,2.1,0.3,2.7,1.3C30.4,145.2,30.3,145.3,30.2,145.2 M30.3,151.8c0.7,0.1,1.4-0.1,1.9-0.6
					c-0.4,0.7-1.3,1.1-2,0.7C30,151.9,30.1,151.8,30.3,151.8 M30.9,157.4c-0.9,0.4-1.6,0.6-2,1.2c0-0.3,0.1-0.6,0.3-0.9
					c-0.6-0.1-1.1,0.1-1.5,0.6c0-1.7,2.5-1,3.5-1.4C31.4,156.9,31.4,157.2,30.9,157.4 M34.8,165.1l0.2,0.5c-0.2,0.1-0.5,0.1-0.7,0
					c-0.2-0.6-0.3-1.2-0.2-1.8c0-0.1,0.2-0.1,0.3,0C34.6,164.4,34.7,164.8,34.8,165.1 M43.4,160.5c0.5,0.2,1,0.4,1.5,0.7
					c0.2,0.1-0.2,0.5-0.5,0.3c-0.4-0.2-0.6-0.5-1.2-0.9C42.9,160.5,43,160.4,43.4,160.5 M40.3,154.2c0.8-0.1,1.9,0.1,2.1,1.8
					c0.2,0.6-0.6,2-0.5,1.4c0.1-0.4,0-0.7-0.3-1c0.3-0.9-0.3-1.6-1.4-1.8C39.9,154.5,39.9,154.2,40.3,154.2 M37.4,170.9
					c-0.4,0.2-0.9,0-1.1-0.4c-0.2-0.4,0-0.9,0.4-1.1h0.1c0.2-0.1,0.3-0.1,0.5-0.1v0.3c-0.1,0-0.3,0-0.4,0.1
					c-0.2,0.1-0.4,0.3-0.3,0.5v0.1c0.1,0.3,0.3,0.4,0.6,0.3h0.1c0.1,0,0.2-0.1,0.3-0.2l0.2,0.2C37.7,170.7,37.6,170.8,37.4,170.9
					 M39.1,170c-0.3,0.2-0.8,0.2-1.1-0.2c0,0-0.1-0.1-0.1-0.2c-0.2-0.4-0.1-0.9,0.3-1.1c0,0,0.1,0,0.1-0.1c0.3-0.2,0.8-0.2,1.1,0.2
					l0.1,0.1c0.2,0.4,0.1,0.8-0.2,1.1C39.2,170,39.2,170,39.1,170 M41.3,168.7l-1.1-0.6l0.1,0.2l0.4,0.7l-0.3,0.2l-0.8-1.4l0.4-0.2
					l1.1,0.6L41,168l-0.5-0.8l0.3-0.2l0.8,1.4L41.3,168.7z M43,167.8c-0.4,0.3-0.9,0.2-1.1-0.2c-0.3-0.4-0.2-0.9,0.2-1.1
					c0,0,0.1,0,0.1-0.1c0.1-0.1,0.3-0.1,0.5-0.2v0.3c-0.1,0-0.3,0.1-0.4,0.1c-0.2,0.1-0.3,0.4-0.2,0.6v0.1c0.1,0.2,0.4,0.3,0.6,0.2
					h0.1c0.1-0.1,0.2-0.1,0.3-0.2l0.2,0.2C43.2,167.6,43.1,167.7,43,167.8 M44,167.2l-0.7-1.4l0.3-0.2l0.7,1.4L44,167.2z M45,166.7
					l-0.6-1.5l0.4-0.1l0.5,1.2l0.6-0.3l0.1,0.3L45,166.7z M46.6,166.1l-0.4-1.5l0.4-0.1L47,166L46.6,166.1z M48.2,165.9
					c-0.4,0.1-0.8-0.2-0.9-0.6c0-0.1,0-0.1,0-0.2c0-0.4,0.3-0.8,0.7-0.9h0.1c0.4-0.1,0.8,0.2,0.9,0.6c0,0.1,0,0.1,0,0.2
					C49.1,165.4,48.8,165.8,48.2,165.9C48.3,165.9,48.3,165.9,48.2,165.9 M67.1,168.5L68,169l-0.1,0.3l-0.6-0.3l-0.2,0.3l0.5,0.3
					l-0.1,0.2l-0.5-0.3l-0.2,0.3l0.6,0.4l-0.1,0.3l-1-0.5L67.1,168.5z M65.7,167.7c0.3,0.2,0.4,0.5,0.3,0.8
					c-0.1,0.2-0.3,0.3-0.4,0.2v0.2c0,0.1,0.1,0.3,0.2,0.4l-0.2,0.2c-0.2-0.2-0.4-0.4-0.4-0.7v-0.3h-0.1l-0.1-0.1l-0.3,0.5l-0.3-0.2
					l0.8-1.4L65.7,167.7z M62.8,166.9c0.2-0.4,0.7-0.5,1.1-0.3c0,0,0.1,0,0.1,0.1c0.4,0.2,0.6,0.6,0.4,1c0,0.1,0,0.1-0.1,0.1
					c-0.2,0.4-0.7,0.6-1,0.4l-0.1-0.1c-0.4-0.2-0.6-0.6-0.4-1C62.7,167,62.8,167,62.8,166.9 M61.6,165.4l0.5,0.3
					c0.3,0.2,0.5,0.4,0.3,0.7c-0.1,0.1-0.2,0.2-0.3,0.2l0,0c0.1,0.1,0.1,0.3,0.1,0.5c-0.1,0.3-0.4,0.4-0.8,0.2l-0.6-0.3L61.6,165.4z
					 M59.9,164.7l0.5,0.2v1.7l-0.4-0.1V166l-0.5-0.2l-0.3,0.4l-0.4-0.1L59.9,164.7z M57.4,164.2l0.4,0.1l-0.2,1.3l0.7,0.1v0.3
					l-1.1-0.1L57.4,164.2z M52.4,170.5v0.3h-0.6v0.4h0.7v0.3l-1.1-0.1l0.1-1.6l1,0.1v0.3h-0.7v0.4L52.4,170.5z M54,171.4h-0.4
					l-0.1-1.3H53v-0.3l1.4-0.1v0.3h-0.5L54,171.4z M55.4,167.4c0,0.2,0,0.4,0.1,0.6s0.1,0.3,0.3,0.4c0.6,0,1.1-0.2,1.6-0.5
					c0.1,0.7-1.7,0.8-1.7,0.8c-1.8,0.2-3.6,0.2-5.4,0c0,0-1.8-0.2-1.7-0.8c0.5,0.3,1,0.5,1.6,0.5c0.1-0.1,0.2-0.3,0.3-0.4
					c0.1-0.2,0.1-0.4,0.1-0.6c0.1-0.6,0.2-1.2,0.5-1.8c1,0.8,1.8,1.3,2,1.4c0.2-0.1,1-0.6,2-1.4C55.1,166.1,55.3,166.8,55.4,167.4
					 M63.1,162.7c0,0-0.5-0.1-0.7,0.3c-0.3,0-0.3-0.4,0-0.5c-0.2-0.1-0.5,0-0.7,0.2c-0.3-0.2-0.1-0.5,0.1-0.6
					c-0.2-0.1-0.5,0-0.7,0.2c-0.4-0.1,0.3-0.9,0.9-0.3c0.2,0,0.7,0.1,0.6,0.4C63.4,162.4,63.1,162.7,63.1,162.7 M63.4,162.2
					c-0.4,0-0.4-0.2-0.2-0.3c0.1-0.1,0.6-0.2,1.1-0.5c0.5-0.3,1-0.6,0.8-0.4C64.7,161.6,64.1,162,63.4,162.2 M64.5,155.9
					c0.2-0.3,0.2-1.4,1.2-1.7c0.6-0.2,1.3-0.2,1.9-0.1C67.3,154.7,65.5,154.3,64.5,155.9 M72.4,141.5c0.8,1.1,0.6,2.1,0.3,2.2
					c-0.1-0.1-0.2-0.2-0.2-0.3c-0.5,0.3-0.9,0.8-1.1,1.3C70.9,143.4,72.4,143.1,72.4,141.5 M72,140.6c-0.1,0.3-0.6,1.6-1.2,1.8
					c0.2-0.3,0.3-0.7,0.4-1.1c0.3-0.2,0.5-0.5,0.6-0.8c-0.2,0.1-0.5,0.2-0.8,0.2c-0.1-0.1-0.1-0.2-0.4-0.5c0.5,0.2,1-0.2,1.2-0.2
					C71.9,140,72,140.5,72,140.6 M69.5,142.3c-0.1-0.1-0.4-0.2-0.4-0.4c0-0.2,0-0.3,0.1-0.5c0,0,0.5-0.1,0.6-0.4
					c0.2,0,0.5,0.2,0.5,0.4l0,0c0,0.1,0,1-0.5,0.9c-0.1,0.1-0.1,0.3-0.2,0.4C69.6,142.8,69.6,142.4,69.5,142.3 M68.9,143
					c0.1,0,0.1,0.1,0.3,0.2c0.1,0.6-0.4,1.2-1,1.3c-1.2,0.3-1-0.5-0.7-0.8c0.3-0.3,0.6-0.6,0.7-1.1c0-0.1,0.1,0.1,0.3,0.2
					c-0.1,0.5-0.3,1-0.7,1.3C68.4,144.1,68.8,143.6,68.9,143 M71,138.7c-0.2,0.2-0.3,0.4-0.3,0.6c0.9-0.6,1.1,0.3,1.1,0.5
					c-0.6-0.4-0.9,0-1.2-0.1C70,139.3,70.6,138.8,71,138.7 M71.9,136.6c-0.1,0.1-0.1,0.3-0.2,0.4c-0.7-0.3-1.4-0.4-2.1-0.4
					c0.7,0.2,1.3,0.4,2,0.7c-0.1,0.3-0.2,0.5-0.2,0.5c-0.9-0.3-1.9-0.6-2.9-0.7c0-0.2-0.1-0.8-0.1-1.3
					C69.5,135.9,70.7,136.1,71.9,136.6 M65.3,139.3c0.2-0.3,0.6-0.5,1-0.5c0,0-0.4-0.2-0.4-0.4c0.3,0.1,0.6,0.1,0.9-0.1
					c1.4-0.5,1.7,0.2,1.9,0.4c0.1-0.2,0.1-0.4,0.1-0.6c0.2,0.2,0.3,0.5,0.4,0.8c-0.1,0.2-0.3,0.2-0.4,0.2l0,0l0,0l0,0
					c-0.4,0-0.5-0.4-0.9-0.3c0.2,0.9,0.9,1,1,0.7c0.3-0.3,0.8-0.3,1.1,0l0.1,0.1c0,0.4,0,0.7-0.2,1.1c-0.2-0.1-0.4-0.1-0.5,0
					c-0.3-0.3-0.4-0.4-0.6-0.3c-0.2,0.4,0,0.8,0.3,1c0,0.2-0.1,0.3-0.2,0.5c-0.1,0.1-0.3,0.1-0.5,0.1c-0.2,0.1-0.3,0.2-0.4,0.4
					c0-0.1,0-0.3,0-0.4c-0.2-0.1-0.4-0.2-0.4-0.5c0-0.4,0.1-0.8,0.3-1.1c-0.2-0.2-0.4-0.5-0.5-0.7c0,0.3,0,0.6,0.1,0.8
					c-0.2,0.3-0.3,0.6-0.3,0.9c-0.3-0.5-0.4-1.1-0.4-1.6c-0.3,0.4-0.6,1.1-0.2,2.6c-1.2-1.2-1.1-2.4-0.3-3
					C66,139.2,65.6,139.2,65.3,139.3 M61.4,145.1c0.5,0.1,1,0.3,1.5,0.5c0.3,0.3,0,1,0,1c-0.5-0.3-0.9-0.6-1.5-0.8V145.1z
					 M61.4,147.4c0.3,0.3,0.7,0.7,1.2,1.2c0.4,0,1.1-0.7,1.4-0.1c-1,0.7-1.7,1.4-2.5,1.9c0,0,0,0.1-0.1,0.1L61.4,147.4z M57.2,143.3
					c0.2,0.2,0.3,0.5,0.4,0.8h-0.5c-0.1-0.5-0.5-0.8-1-0.9C56.4,142.9,56.9,142.9,57.2,143.3 M48.6,130.4c0-2.3,1.9-4.2,4.2-4.2
					s4.2,1.9,4.2,4.2c0,1.4-0.7,2.7-1.8,3.5c-0.4-0.1-0.7-0.1-1.1,0c-0.4-0.1-0.8-0.1-1.2,0c-0.4-0.1-0.9-0.1-1.4,0
					c-0.4-0.1-0.8-0.1-1.2,0C49.3,133,48.6,131.7,48.6,130.4 M54.2,134.1c1-0.3,1.3,0.5,1.5,0.6C55.1,135,54.4,134.7,54.2,134.1
					 M55.6,137.4c0,0.2-0.2,0.2-0.3,0.2s-0.2-0.2-0.2-0.3s0.1-0.2,0.3-0.2C55.5,137.1,55.6,137.2,55.6,137.4 M53.6,134.8
					c-1.3,0.3-1.3-0.4-1.7-0.6C53.2,133.8,53.2,134.6,53.6,134.8 M49.8,134.5c-0.1-0.3,0.3-0.5,0.7-0.4c0.3,0.1,0.6,0.5,0.7,0.7
					C50.5,134.9,49.9,134.9,49.8,134.5 M49.1,137.5c0.4-0.9,1-1.7,1.8-2.2c0.3-0.2,0.9-0.2,0.7,0c-0.6,0.7-1,1.6-1.2,2.5
					C49.1,138,49,137.8,49.1,137.5 M50,144.5c0.1,0.3,0.9,1,2.7-0.1c-1.6,0.3-2.3,0-2.3-0.3c0.2-0.2,0.6-0.7,0.6-0.7
					c0-2-0.9-3.8-2.4-5.1c-0.1-0.1,0-0.1,0.1-0.1c1.7,0,3.4-0.1,5-0.5c0.6-0.2,0.4-1.1,0.1-1.4c0.1,0,0.4,0,0.7,0
					c0.1,0.1,0.3,0.2,0.4,0.4c-0.1,0-0.3,0-0.4,0c0,0,0.3,1.1-0.5,1.3c-1,0.3-2.1,0.5-3.2,0.5c0.6,0.5,1.4,0.8,2.2,0.8
					c0.1,1.2,0.2,2.5,0.4,3.7c-0.7,0.4-1.4,0.5-2.2,0.5c0.8,0.3,1.7,0.2,2.4-0.3c0.3,0.2,0.7,0.2,1.1,0.2c-0.1,0.1-0.2,0.1-0.3,0.2
					c-0.8,0.9-1.9,1.5-3.1,1.7c-0.7,0.1-1.5,0-1.7-0.7C49.6,144.3,49.8,144.2,50,144.5 M44.4,144.4L44.4,144.4l-0.1,0.5
					c-0.4,0.2-0.4,0.3-0.8,0.4c-0.2-0.2-0.3-0.4-0.4-0.6C43.6,144.5,44,144.4,44.4,144.4 M43.8,146.4c0.2,0,0.4-0.1,0.5-0.2
					c0,1,0,2,0,2.9c-0.3-0.6-0.7-1.1-0.7-1.1S44.1,147.5,43.8,146.4 M40.2,142.8c-0.6,0.4-1.7,1-2.8,1.8c0.3-0.4,0.6-0.7,0.9-0.9
					c-0.4,0.2-0.8,0.4-1.1,0.6c0.3-0.3,0.6-0.6,0.9-0.9c-0.4,0.1-0.9,0.3-1.2,0.6c0.8-0.7,1.6-1.3,2.5-1.8
					C39.8,142.4,40,142.6,40.2,142.8 M37.4,141.1c0.3,0.3,0.7,0.7,1,0.9c-0.2,0.1-0.8,0.5-0.8,0.5c-0.3-0.2-0.5-0.4-0.7-0.7
					c-0.8-0.1-1.5-0.7-1.8-1.5C35.7,141.3,37,141.6,37.4,141.1 M37.5,137c-0.1,0.5-0.5,0.6-1.4,0.6C36.9,137.2,36.9,136.7,37.5,137
					 M36.8,138.3c0.2-0.1,0.4-0.1,0.3,0c-0.4,0.4-0.5,0.9-0.4,1.5c0.1,0.3,0,0.5-0.4,0.4c-0.7-0.2-1.1-1-0.9-1.7
					c0-0.1,0.1-0.3,0.2-0.4c-0.1,0.4,0.1,0.9,0.4,1.2C36.2,138.9,36.5,138.6,36.8,138.3 M35.7,136.6l-0.3,0.1c-0.5-1-1-2-1.7-2.9
					C34.5,134.1,35.7,136.6,35.7,136.6 M34.1,134.9c0,0.1-0.3,0.2-0.4,0.2c-0.1-0.1-0.4-0.4-0.5-0.5
					C33.7,134.5,33.9,134.7,34.1,134.9 M31,133.4c1.5,0.9,2.8,2,3.9,3.4c-0.2,0-0.4,0-0.6,0.1C33.5,135.5,32.3,134.4,31,133.4
					 M34,138.8c0-0.1,0.1-0.1,0.1,0.1c-0.4,2,1.1,4,1.9,4.8c-0.2,0.1-0.3,0.3-0.5,0.5C35.5,144.2,33.2,141.2,34,138.8 M35.7,144.4
					c1-1,2.2-1.8,3.4-2.4c0.3-0.2,0.6,0,0.3,0.1c-1.3,0.7-2.5,1.5-3.6,2.5C35.7,144.7,35.5,144.5,35.7,144.4 M36.3,145.6
					c-0.2-0.2-0.4-0.4-0.5-0.6c0.4-0.2,0.9,0.3,0.9,0.3L36.3,145.6z M36.5,145.7c1.2-1.1,2.6-2.1,4-2.9c0.4-0.2,0.5-0.1,0.3,0
					c-0.1,0.1-0.3,0.2-0.4,0.3c-1.4,0.8-2.7,1.8-3.9,2.9C36.3,146.1,36.3,145.9,36.5,145.7 M38.3,154.4c-0.2,0.9,0,3-1,3.6
					c0.5-1.1-0.2-2.5,0-3.3c-0.2,0.1-0.4,0.2-0.6,0.4c-0.4-1.9,2.1-1.8,3.9-4.1C40,152.9,38.5,153.3,38.3,154.4 M40.6,149.3
					c-1-0.2-1.7-0.8-2.4-2.3c0.7,1,1.7,1.7,2.8,2c0,0,0.1,0.6,1.4,1.2C41.5,149.9,40.9,150,40.6,149.3 M43.9,156.5
					c-0.1-0.2-0.2-0.7-0.2-0.7s0.5-0.6,0.7-0.5C44.6,155.5,44.3,156.1,43.9,156.5 M44.9,151.7c-0.2-0.4,0-0.7-0.5-1.2
					c-0.7-0.9-1.5-1.7-2.3-2.4c0-0.3,0.2-0.6,0.4-0.9c-0.3,0-0.7,0.2-0.9,0.4c0,0-0.8-2.4-2.2-2.4c-0.2,0.2-0.1,0.5-0.4,0.8
					c-0.3-0.3-0.6-0.7-0.8-1.1c0.6-0.5,1.2-0.9,1.9-1.3c0.7,0.2,1.3,0.6,1.7,1.2c1.2,0.3,1.6,2.3,0.8,2.3c1.1,1.1,2,2.9,2.6,3.5
					l0.1,0.1c0.1,0.4,0.1,0.7,0.1,1.1C45.4,152.2,45.1,152.2,44.9,151.7 M46.5,151c0.1,0.1,1.7,0.8,2.2,1.1c0.2,0.4,0.4,0.7,0.6,1.1
					c-1.4,0-2.9,0-4,0.1c0-0.1,0.1-0.2,0.1-0.3c0.2-0.2,0.3-0.5,0.3-0.8c0-0.5-0.1-1-0.3-1.5c-0.1-0.1-0.2-0.2-0.3-0.3
					c0-1.6,0-3.3,0-5.2c1.3-0.2,2.7-0.3,3.9-0.3c0.2,0.6,0.7,1.2,2,1.1c1-0.1,2-0.6,2.8-1.2c2.2,0,4.4,0.2,6.6,0.4
					c0,2.3,0,4.3,0,6.1c0,0,0,0-0.1,0c-0.4,0-0.8,0.4-0.7,0.8c0,0.1,0,0.3,0.1,0.4c-0.4,0.2-0.6,0.6-0.5,1c-0.7,0-1.4-0.1-2.2-0.1
					c0-0.1,0.1-0.3,0.1-0.4c0.1-0.1,0.3-0.2,0.4-0.2c0.1-0.1,0.2-0.4,0.3-0.6c-0.5,0-1.6,0-2.3,0.1c-0.5-0.7-0.5-1.6-0.2-2.3
					c0.2,0,0.3-0.1,0.1-0.1c-1.3,0.1-2.5,0.3-2.6,0.3s-0.4,0.1-0.1,0.1c-0.4,0.6-0.4,1.3-0.1,1.9c0.2-0.3,1.6-0.4,2.8,0.1l0,0
					c-0.1,0-0.3,0.3-0.4,0.3c-1.8,0.1-3.7,0-5.5-0.5c-0.7-0.3-2.3-0.9-2.8-1.1C46.4,150.9,46.4,151,46.5,151 M53.2,153.2
					c-0.4,0-0.7,0-1,0l0,0c-0.7,0-1.5,0-2.3,0c0.2-0.3,0.6-0.4,1.3-0.3c0.7,0.2,1.4,0.2,2,0c0.5,0.2,2.2,0.1,2.7,0.4
					C54.9,153.2,54,153.2,53.2,153.2L53.2,153.2L53.2,153.2z M58.7,160.7c-1.4-2-3.5-4.6-5.4-6.9c0.7,0,1.7,0,2.6,0.1
					c1,1.2,2.7,3.4,4,5.1C59.6,159.5,59.2,160.1,58.7,160.7 M60.5,156.2c-0.6-0.7-1-1.4-1.8-2.3c0.3,0,0.7,0,0.9,0
					c0,0.2,0.1,0.3,0.2,0.4c0,0.2,0.1,0.3,0.2,0.4c0-0.1,0-0.2,0.1-0.3c0.1,0,0.2,0,0.3,0l0,0L60.5,156.2z M61.5,153.7
					c-0.1,0.1-0.2,0.2-0.2,0.4c0,0.1-0.1,0.2-0.2,0.1c-0.2-0.2-0.3-0.6,0.3-1C61.7,153.1,61.8,153.4,61.5,153.7 M63.7,150.5
					c-0.1,0.1,0,0.4,1,0.2c0.1,0,0,0,0,0.1c-0.9,0.5-1.7,0.6-2,1c-0.4,0.5-0.9,1-1.4,1.3c-0.4,0.1-0.7,0.4-0.7,0.8
					c0,0.2-0.2,0.2-0.3,0.1c-0.3-0.3-0.1-0.8,0.4-1c-0.3,0-0.6,0.2-0.7,0.5c0,0.1-0.2,0-0.2,0c-0.1-0.3,0.1-0.7,0.4-0.8
					c0.2-0.1,0.6-0.3,0.7-0.6c-0.2,0.1-0.4,0.2-0.6,0.3c-0.1-0.2-0.1-0.4,0.1-0.6c0.2-0.1,0.5-0.1,0.7-0.2c0.4-0.2,0.6-0.6,0.9-0.8
					c1-0.6,1.9-1.4,2.9-2c-0.3-0.6-0.4-1.3-0.4-2c-0.4,0.2-0.5,0.3-0.8,0.2c0.5-0.5,0.2-3,1.6-3.7c-0.6,0.9-0.2,2-0.5,2.8
					c0.3-0.4,0.7-0.8,1.1-1c-0.6,0.9-0.7,2-0.1,2.9c1-1.5,2.6-2.4,4.3-2.4c-1.7,0.3-3.1,1.4-3.9,3C65.2,149.1,64.4,149.8,63.7,150.5
					 M65.8,151.2c0.5-0.3,1.1-0.4,1.7-0.5c0.6-0.8,1.5-1.2,2.4-1.1c-0.2,0.5-1,0.7-1,0.7c0.4,0.2,0.8,0.3,1.2,0.3
					c-0.5,0.5-2,0.1-2,0.1c0.1,0.3,0.1,0.6,0,0.9C67.6,150.9,65.8,151.2,65.8,151.2 M70.3,157.8c0,0.2-0.1,0.2-0.2,0
					c-0.1-1.6,0.5-3.3-0.1-3.9c-0.7-0.7-1.8-0.6-2.5-1.8c1.3,0.8,3.5,0.1,3.8,0.9c-0.4-0.1-0.7,0.1-0.9,0.4c0.7,0,1.1,0.8,1.1,1.4
					C71.3,155.3,70.6,156.5,70.3,157.8 M70.1,166c-0.3,0-0.3-0.4,0-0.5c-0.2-0.1-0.5,0-0.7,0.1c-0.2,0-0.1-0.5,0.1-0.5
					c-0.2,0-0.5,0-0.7,0.2c-0.4-0.2,0.2-1.2,0.9-0.3c0.2,0,0.8,0.1,0.7,0.4c0.3,0,0.5,0.1,0.6,0.4C71,165.8,70.3,165.6,70.1,166
					 M72,164.3c-0.1,0.3-0.3,0.6-0.7,0.8c-0.4,0.3-0.7-0.3-0.5-0.4c0.4-0.2,0.8-0.5,1.1-0.9C72,163.7,72.2,163.9,72,164.3 M77.4,154
					c-0.2-0.1-0.5-0.1-0.8-0.1c0.7,0.2,1.1,1,0.9,1.7c0,0.1,0,0.1-0.1,0.2c-0.6-1.1-1.7-1-2.1-0.3c-0.1-0.3,0.4-1.1,1.3-0.8
					c-0.5-1-1.5-0.5-2-1.7c0.3,0.2,0.7,0.2,1.1,0.4c0-0.2-1.4-0.3-1.4-1.5C75.2,153,77,152.8,77.4,154 M76.3,145.7
					c0-1.3,1.3-0.9,2.2-1.3C78.1,145.4,77.1,144.9,76.3,145.7"/>
				<path id="Path_398" class="st1" d="M91.1,128.5h3.4l6.7,19.3l7.4-19.3h3.3v20.8h-2.3v-14.9l0.1-3.2l-6.9,18.1h-3.4l-6.2-18.1
					l0.2,3.3v14.8h-2.3L91.1,128.5z"/>
				<path id="Path_399" class="st1" d="M122.6,128.5h3.2l7.3,20.8h-2.5l-2.7-7.8h-8l-3,7.8h-2.4L122.6,128.5z M127.2,139.6l-3.1-9.4
					l-3.5,9.4H127.2z"/>
				<path id="Path_400" class="st1" d="M135.8,128.5h3.4l10.3,18.7l-0.1-2.6v-16.1h2.4v20.8h-3.7l-10-18.5l0.1,2.1v16.3h-2.3
					L135.8,128.5L135.8,128.5z"/>
				<path id="Path_401" class="st1" d="M155.4,139c0-6.6,3.9-10.8,10.6-10.8c2.1-0.1,4.3,0.5,6.1,1.6l-0.7,2c-1.6-1-3.4-1.5-5.3-1.4
					c-4.3,0-8.2,2.4-8.2,8.4c0,6.2,4,8.8,8.8,8.8c1.7,0,3.3-0.4,4.7-1.2l0.8,1.8c-1.8,1.1-3.9,1.7-6,1.6
					C159.3,149.6,155.4,145.2,155.4,139"/>
				<path id="Path_402" class="st1" d="M175.2,128.5h2.4v9.3h11.1v-9.3h2.4v20.8h-2.4v-9.4h-11.1v9.4h-2.4V128.5z"/>
				<path id="Path_403" class="st1" d="M195.4,128.5h11.3v2h-8.9v7.4h8.3v2h-8.3v7.4h9.6v2h-11.9v-20.8H195.4z"/>
				<path id="Path_404" class="st1" d="M210.5,148l0.9-1.9c1.4,0.9,3,1.4,4.7,1.5c2.3,0,4.9-0.8,4.9-3.5c0-5.2-10-4-10-10.8
					c0-3.4,2.8-5,6-5c1.8,0,3.5,0.5,5,1.5l-0.8,1.8c-1.2-0.8-2.7-1.2-4.2-1.3c-2.2,0-3.8,0.9-3.8,3c0,4.7,10.1,4.1,10.1,10.7
					c0,4-3.2,5.8-7.2,5.8C214.1,149.7,212.1,149.2,210.5,148"/>
				<path id="Path_405" class="st1" d="M232.3,130.5h-6.9v-2.1h16.1v2.1h-6.9v18.7h-2.4L232.3,130.5z"/>
				<path id="Path_406" class="st1" d="M244.7,128.5h11.6v2h-9.2v7.4h8.6v2h-8.6v7.4h9.9v2h-12.3L244.7,128.5L244.7,128.5z"/>
				<path id="Path_407" class="st1" d="M271,146.4l-3.8-5.6c-0.6,0.1-1.3,0.1-1.9,0.1h-2.8v8.3h-2.3v-20.8h6.6
					c3.9,0,6.6,1.9,6.6,6.1c0.1,2.5-1.4,4.8-3.8,5.7l3.2,4.6c0.9,1.4,2.4,2.4,4,2.8l-0.5,1.9C274.1,149.4,272.2,148.2,271,146.4
					 M265.6,139c3.2,0,5.4-1,5.4-4.2c0-3.2-1.6-4.3-4.7-4.3h-3.6v8.5H265.6z"/>
				<path id="Path_408" class="st1" d="M89,164.4c0-4.7,2.6-7.5,7.3-7.5c1.4,0,2.9,0.3,4.1,1.1l-0.6,1.7c-1.1-0.6-2.3-0.9-3.5-0.9
					c-2.8,0-5.1,1.6-5.1,5.4c0,3.9,2.4,5.7,5.5,5.7c1.1,0,2.2-0.3,3.2-0.8l0.5,1.7c-1.3,0.7-2.7,1-4.1,1
					C91.6,171.8,89,168.9,89,164.4"/>
				<rect id="Rectangle_654" x="102.9" y="157.2" class="st1" width="2.2" height="14.4"/>
				<path id="Path_409" class="st1" d="M111.7,159h-4.6v-1.8h11.3v1.8h-4.6v12.6h-2.1L111.7,159z"/>
				<path id="Path_410" class="st1" d="M124.2,166.4l-4.7-9.1h2.4l3.4,7.2l3.6-7.2h2.3l-5,9.1v5.2h-2V166.4z"/>
				<path id="Path_411" class="st1" d="M136.8,164.4c0-4.7,2.6-7.5,7.3-7.5c1.5-0.1,2.9,0.3,4.2,1.1l-0.6,1.7
					c-1.1-0.6-2.3-0.9-3.5-0.9c-2.8,0-5.2,1.6-5.2,5.4c0,3.9,2.5,5.7,5.6,5.7c1.1,0,2.3-0.3,3.3-0.8l0.5,1.7c-1.3,0.7-2.7,1-4.1,1
					C139.4,171.7,136.8,168.8,136.8,164.4"/>
				<path id="Path_412" class="st1" d="M166,166.3v-9.1h2.2v8.9c0,2.9,1.7,3.8,3.7,3.8c2.1,0,3.7-1.1,3.7-4.2v-8.5h2.1v8.6
					c0,4.7-3.1,6-5.8,6C169,171.7,166,170.6,166,166.3"/>
				<path id="Path_413" class="st1" d="M149.5,164.3c0-4.5,2.9-7.4,7.3-7.4c4.7,0,6.9,3.2,6.9,7.4c0,4.5-2.7,7.4-7.3,7.4
					C152,171.8,149.5,168.8,149.5,164.3 M161.6,164.4c0-3.2-1.7-5.6-4.9-5.6c-3.4,0-5,2.4-5,5.6c0,3.1,1.6,5.7,4.9,5.7
					C160.1,170,161.6,167.6,161.6,164.4"/>
				<path id="Path_414" class="st1" d="M180.8,157.2h2.8l6.6,12l-0.1-1.7v-10.3h2.1v14.4h-3l-6.5-11.8l0.1,1.6v10.2h-2.1
					L180.8,157.2L180.8,157.2z"/>
				<path id="Path_415" class="st1" d="M194.9,164.5c0-4.7,2.6-7.5,7.3-7.5c1.4-0.1,2.9,0.3,4.1,1.1l-0.6,1.7
					c-1.1-0.6-2.3-0.9-3.5-0.9c-2.8,0-5.1,1.6-5.1,5.4c0,3.9,2.4,5.7,5.5,5.7c1.1,0,2.2-0.3,3.3-0.8l0.5,1.7c-1.3,0.7-2.7,1-4.1,1
					C197.5,171.8,194.9,168.9,194.9,164.5"/>
				<rect id="Rectangle_655" x="209" y="157.2" class="st1" width="2.2" height="14.4"/>
				<path id="Path_416" class="st1" d="M214.9,157.2h2.1v12.6h6.1v1.8h-8.2L214.9,157.2z"/>
			</g>
		</g>
	</g>
</g>
</svg>
